<svg id="svg2" xmlns="http://www.w3.org/2000/svg" viewBox="0 0 134.63 124"><defs><style>.cls-1{fill:#000102;}</style></defs><title>film_strip_white</title><g id="layer1"><path id="rect10" class="cls-1" d="M0,0V124H134.63V0ZM7,6.34H9.81a1.76,1.76,0,0,1,1.75,1.78V14.5a1.76,1.76,0,0,1-1.75,1.78H7A1.78,1.78,0,0,1,5.19,14.5V8.13A1.78,1.78,0,0,1,7,6.34Zm16.84,0h2.81a1.78,1.78,0,0,1,1.78,1.78V14.5a1.78,1.78,0,0,1-1.78,1.78H23.81A1.78,1.78,0,0,1,22,14.5V8.13A1.78,1.78,0,0,1,23.81,6.34Zm16.81,0h2.84a1.78,1.78,0,0,1,1.78,1.78V14.5a1.78,1.78,0,0,1-1.78,1.78H40.63a1.76,1.76,0,0,1-1.75-1.78V8.13A1.76,1.76,0,0,1,40.63,6.34Zm16.84,0h2.84a1.78,1.78,0,0,1,1.78,1.78V14.5a1.78,1.78,0,0,1-1.78,1.78H57.47a1.76,1.76,0,0,1-1.75-1.78V8.13A1.76,1.76,0,0,1,57.47,6.34Zm16.84,0h2.84a1.76,1.76,0,0,1,1.75,1.78V14.5a1.76,1.76,0,0,1-1.75,1.78H74.31a1.78,1.78,0,0,1-1.78-1.78V8.13A1.78,1.78,0,0,1,74.31,6.34Zm16.84,0H94a1.76,1.76,0,0,1,1.75,1.78V14.5A1.76,1.76,0,0,1,94,16.28H91.16a1.78,1.78,0,0,1-1.78-1.78V8.13A1.78,1.78,0,0,1,91.16,6.34Zm16.84,0h2.81a1.78,1.78,0,0,1,1.78,1.78V14.5a1.78,1.78,0,0,1-1.78,1.78H108a1.78,1.78,0,0,1-1.78-1.78V8.13A1.78,1.78,0,0,1,108,6.34Zm16.81,0h2.84a1.78,1.78,0,0,1,1.78,1.78V14.5a1.78,1.78,0,0,1-1.78,1.78h-2.84a1.76,1.76,0,0,1-1.75-1.78V8.13A1.76,1.76,0,0,1,124.81,6.34ZM1.53,19.47H133.09v85H1.53Zm4.88,88.94H9.25A1.76,1.76,0,0,1,11,110.16v6.38a1.78,1.78,0,0,1-1.78,1.78H6.41a1.76,1.76,0,0,1-1.75-1.78v-6.37A1.73,1.73,0,0,1,6.41,108.41Zm16.84,0h2.84a1.76,1.76,0,0,1,1.78,1.75v6.38a1.78,1.78,0,0,1-1.78,1.78H23.25a1.76,1.76,0,0,1-1.75-1.78v-6.37A1.73,1.73,0,0,1,23.25,108.41Zm16.84,0h2.84a1.76,1.76,0,0,1,1.78,1.75v6.38a1.78,1.78,0,0,1-1.78,1.78H40.09a1.78,1.78,0,0,1-1.78-1.78v-6.37A1.76,1.76,0,0,1,40.09,108.41Zm16.84,0h2.84a1.73,1.73,0,0,1,1.75,1.75v6.38a1.76,1.76,0,0,1-1.75,1.78H56.94a1.78,1.78,0,0,1-1.78-1.78v-6.37A1.76,1.76,0,0,1,56.94,108.41Zm16.84,0h2.81a1.76,1.76,0,0,1,1.78,1.75v6.38a1.78,1.78,0,0,1-1.78,1.78H73.78A1.78,1.78,0,0,1,72,116.53v-6.37A1.76,1.76,0,0,1,73.78,108.41Zm16.84,0h2.81a1.76,1.76,0,0,1,1.78,1.75v6.38a1.78,1.78,0,0,1-1.78,1.78H90.63a1.78,1.78,0,0,1-1.78-1.78v-6.37A1.76,1.76,0,0,1,90.63,108.41Zm16.81,0h2.84a1.76,1.76,0,0,1,1.78,1.75v6.38a1.78,1.78,0,0,1-1.78,1.78h-2.84a1.76,1.76,0,0,1-1.75-1.78v-6.37A1.73,1.73,0,0,1,107.44,108.41Zm16.84,0h2.84a1.76,1.76,0,0,1,1.78,1.75v6.38a1.78,1.78,0,0,1-1.78,1.78h-2.84a1.78,1.78,0,0,1-1.78-1.78v-6.37A1.76,1.76,0,0,1,124.28,108.41Z"/></g></svg>