<svg id="svg2" xmlns="http://www.w3.org/2000/svg" viewBox="0 0 134.63 124"><defs><style>.cls-1{fill:#000102;}.cls-2{fill:#fff800;}.cls-3{fill:#ffff08;}</style></defs><title>film_strip</title><g id="layer1"><path id="rect10" class="cls-1" d="M0,0V124H134.63V0ZM1.53,19.47H133.09v85H1.53Z"/><path class="cls-2" d="M129.44,8.12V14.5a1.78,1.78,0,0,1-1.78,1.78h-2.85a1.76,1.76,0,0,1-1.75-1.78V8.12a1.76,1.76,0,0,1,1.75-1.78h2.85A1.78,1.78,0,0,1,129.44,8.12Z"/><path class="cls-2" d="M128.91,110.16v6.37a1.79,1.79,0,0,1-1.79,1.78h-2.84a1.78,1.78,0,0,1-1.78-1.78v-6.37a1.76,1.76,0,0,1,1.78-1.75h2.84A1.75,1.75,0,0,1,128.91,110.16Z"/><rect class="cls-2" x="106.22" y="6.34" width="6.37" height="9.94" rx="1.78" ry="1.78"/><path class="cls-2" d="M112.06,110.16v6.37a1.78,1.78,0,0,1-1.78,1.78h-2.84a1.76,1.76,0,0,1-1.75-1.78v-6.37a1.73,1.73,0,0,1,1.75-1.75h2.84A1.75,1.75,0,0,1,112.06,110.16Z"/><path class="cls-2" d="M95.75,8.12V14.5A1.76,1.76,0,0,1,94,16.28H91.16a1.78,1.78,0,0,1-1.78-1.78V8.12a1.78,1.78,0,0,1,1.78-1.78H94A1.76,1.76,0,0,1,95.75,8.12Z"/><path class="cls-2" d="M95.22,110.16v6.37a1.78,1.78,0,0,1-1.78,1.78H90.62a1.78,1.78,0,0,1-1.78-1.78v-6.37a1.76,1.76,0,0,1,1.78-1.75h2.82A1.75,1.75,0,0,1,95.22,110.16Z"/><path class="cls-2" d="M78.91,8.12V14.5a1.76,1.76,0,0,1-1.75,1.78H74.31a1.78,1.78,0,0,1-1.78-1.78V8.12a1.78,1.78,0,0,1,1.78-1.78h2.85A1.76,1.76,0,0,1,78.91,8.12Z"/><path class="cls-2" d="M78.38,110.16v6.37a1.79,1.79,0,0,1-1.79,1.78H73.78A1.78,1.78,0,0,1,72,116.53v-6.37a1.76,1.76,0,0,1,1.78-1.75h2.81A1.75,1.75,0,0,1,78.38,110.16Z"/><path class="cls-2" d="M62.09,8.12V14.5a1.78,1.78,0,0,1-1.78,1.78H57.47a1.76,1.76,0,0,1-1.75-1.78V8.12a1.76,1.76,0,0,1,1.75-1.78h2.84A1.78,1.78,0,0,1,62.09,8.12Z"/><path class="cls-2" d="M61.53,110.16v6.37a1.76,1.76,0,0,1-1.75,1.78H56.94a1.78,1.78,0,0,1-1.78-1.78v-6.37a1.76,1.76,0,0,1,1.78-1.75h2.84A1.73,1.73,0,0,1,61.53,110.16Z"/><path class="cls-2" d="M45.25,8.12V14.5a1.78,1.78,0,0,1-1.78,1.78H40.62a1.75,1.75,0,0,1-1.74-1.78V8.12a1.75,1.75,0,0,1,1.74-1.78h2.85A1.78,1.78,0,0,1,45.25,8.12Z"/><path class="cls-2" d="M44.72,110.16v6.37a1.78,1.78,0,0,1-1.78,1.78H40.09a1.78,1.78,0,0,1-1.78-1.78v-6.37a1.76,1.76,0,0,1,1.78-1.75h2.85A1.75,1.75,0,0,1,44.72,110.16Z"/><path class="cls-2" d="M28.41,8.12V14.5a1.79,1.79,0,0,1-1.79,1.78H23.81A1.78,1.78,0,0,1,22,14.5V8.12a1.78,1.78,0,0,1,1.78-1.78h2.81A1.79,1.79,0,0,1,28.41,8.12Z"/><path class="cls-2" d="M27.88,110.16v6.37a1.79,1.79,0,0,1-1.79,1.78H23.25a1.76,1.76,0,0,1-1.75-1.78v-6.37a1.73,1.73,0,0,1,1.75-1.75h2.84A1.75,1.75,0,0,1,27.88,110.16Z"/><path class="cls-2" d="M11,110.16v6.37a1.78,1.78,0,0,1-1.78,1.78H6.41a1.75,1.75,0,0,1-1.75-1.78v-6.37a1.72,1.72,0,0,1,1.75-1.75H9.25A1.75,1.75,0,0,1,11,110.16Z"/><rect class="cls-3" x="5.19" y="6.34" width="6.37" height="9.94" rx="1.78" ry="1.78"/></g></svg>